<svg xmlns="http://www.w3.org/2000/svg" viewBox="0 0 4307 1240" width="4307" height="1240" role="img" aria-label="chartula">
<g transform="translate(120,920) scale(1,-1)" fill="#FFF6EC">
<path transform="translate(0,0)" d="M289.5 -12.5Q241.5 -12.5 196.0 4.25Q150.5 21 114.0 53.0Q77.5 85 56.25 131.25Q35 177.5 35 237Q35 296 56.25 342.0Q77.5 388 113.5 420.0Q149.5 452 194.75 468.75Q240 485.5 287.5 485.5Q323 485.5 354.25 475.75Q385.5 466 408.5 452.0Q431.5 438 441.5 424Q455 411.5 463.75 400.75Q472.5 390 470 374Q467 364 460.75 355.25Q454.5 346.5 446 338Q422 310.5 398.5 317.5Q385.5 324.5 372.5 332.75Q359.5 341 346.25 348.5Q333 356 318.75 361.0Q304.5 366 287.5 366Q249.5 366 220.0 349.5Q190.5 333 174.0 304.0Q157.5 275 157.5 236.5Q157.5 198.5 174.0 169.25Q190.5 140 219.5 123.5Q248.5 107 285.5 107Q304 107 320.25 111.5Q336.5 116 349.5 123.5Q362.5 131 370.5 138.5Q381.5 146 390.5 151.75Q399.5 157.5 410 157.5Q421.5 157.5 433.25 149.0Q445 140.5 459 122.5Q471.5 107.5 473.25 93.5Q475 79.5 467.25 66.75Q459.5 54 442.5 42.5Q430.5 31 407.0 18.25Q383.5 5.5 353.25 -3.5Q323 -12.5 289.5 -12.5Z"/>
<path transform="translate(507,0)" d="M106 -10Q78 -10 65.25 -1.75Q52.5 6.5 49.5 20.5Q46.5 34.5 46.5 51V647.5Q46.5 664.5 50.0 678.0Q53.5 691.5 66.25 699.5Q79 707.5 107 707.5Q135 707.5 147.5 699.25Q160 691 163.25 677.5Q166.5 664 166.5 646.5V421Q187 444 218.5 463.5Q250 483 295 483Q355.5 483 403.5 453.5Q451.5 424 479.75 371.75Q508 319.5 508 249.5V50Q508 33.5 504.75 20.0Q501.5 6.5 489.25 -1.5Q477 -9.5 448.5 -9.5Q421 -9.5 408.0 -1.5Q395 6.5 391.75 20.25Q388.5 34 388.5 51.5V250.5Q388.5 286 376.5 311.75Q364.5 337.5 341.0 352.0Q317.5 366.5 282.5 366.5Q235.5 366.5 203.5 339.0Q171.5 311.5 166.5 268.5V50Q166.5 33.5 163.0 19.75Q159.5 6 147.0 -2.0Q134.5 -10 106 -10Z"/>
<path transform="translate(1052,0)" d="M462 -8.5Q432.5 -8.5 418.75 2.5Q405 13.5 404.5 32.5L411.5 66Q403.5 53 384.5 35.5Q365.5 18 334.75 4.5Q304 -9 260 -9Q213 -9 171.5 10.5Q130 30 98.25 64.5Q66.5 99 48.25 143.5Q30 188 30 238.5Q30 287.5 48.25 331.25Q66.5 375 98.75 409.0Q131 443 172.25 462.5Q213.5 482 260 482Q300.5 482 329.0 471.0Q357.5 460 377.5 443.5Q397.5 427 410.5 409L405 437.5Q404.5 460 418.5 471.25Q432.5 482.5 463 482.5Q490.5 482.5 502.5 474.0Q514.5 465.5 517.75 451.0Q521 436.5 521 418.5V53Q521 36 517.75 21.75Q514.5 7.5 502.25 -0.5Q490 -8.5 462 -8.5ZM278 107.5Q311.5 107.5 338.75 124.75Q366 142 382.25 171.25Q398.5 200.5 398.5 237Q398.5 275.5 381.75 304.5Q365 333.5 337.25 350.25Q309.5 367 276 367Q238.5 367 209.75 349.5Q181 332 164.5 302.5Q148 273 148 235.5Q148 199.5 164.75 170.5Q181.5 141.5 211.0 124.5Q240.5 107.5 278 107.5Z"/>
<path transform="translate(1621,0)" d="M111 -10Q83.5 -10 71.0 -1.75Q58.5 6.5 55.5 20.75Q52.5 35 52.5 51.5V423Q52.5 440.5 55.75 454.0Q59 467.5 71.5 475.0Q84 482.5 112 482.5Q139 482.5 151.5 475.5Q164 468.5 167.5 458.0Q171 447.5 171 437.5L163 419.5Q168 428 177.0 439.5Q186 451 200.75 462.25Q215.5 473.5 236.5 481.0Q257.5 488.5 286.5 488.5Q299 488.5 312.5 486.25Q326 484 339.5 479.5Q353 475 363.75 468.0Q374.5 461 380.75 451.5Q387 442 387 429.5Q387 398 370.75 376.0Q354.5 354 332.5 354Q317.5 354 310.75 357.0Q304 360 299.25 363.75Q294.5 367.5 286.25 370.5Q278 373.5 259.5 373.5Q244.5 373.5 229.25 368.5Q214 363.5 201.0 353.5Q188 343.5 180.0 328.25Q172 313 172 293V49.5Q172 33 168.75 19.25Q165.5 5.5 152.75 -2.25Q140 -10 111 -10Z"/>
<path transform="translate(2036,0)" d="M294.5 -10Q245.5 -10 210.75 0.0Q176 10 153.75 31.0Q131.5 52 121.25 85.25Q111 118.5 111 165V589Q111 606.5 114.25 619.5Q117.5 632.5 130.0 640.25Q142.5 648 170 648Q197.5 648 210.25 640.0Q223 632 226.5 618.5Q230 605 230 588.5V168.5Q230 147.5 233.5 134.5Q237 121.5 244.25 115.0Q251.5 108.5 264.0 106.25Q276.5 104 294.5 104Q313.5 104 327.0 100.75Q340.5 97.5 347.75 86.0Q355 74.5 355 49Q355 21 346.5 8.5Q338 -4 324.25 -7.0Q310.5 -10 294.5 -10ZM69.5 473 172.5 472 311 475.5Q327.5 475.5 341.0 472.25Q354.5 469 362.75 456.5Q371 444 371 416Q371 389.5 363.0 376.75Q355 364 341.75 360.25Q328.5 356.5 311.5 356.5L177.5 359L66.5 358Q41.5 359 32.0 372.25Q22.5 385.5 22.5 416.5Q22.5 445.5 34.0 459.25Q45.5 473 69.5 473Z"/>
<path transform="translate(2430,0)" d="M255.5 -9.5Q210 -9.5 171.25 7.25Q132.5 24 103.5 55.0Q74.5 86 58.5 128.75Q42.5 171.5 42.5 224V423Q42.5 440 45.75 453.5Q49 467 61.75 475.0Q74.5 483 102 483Q130.5 483 143.0 474.75Q155.5 466.5 158.75 452.75Q162 439 162 422V223.5Q162 188 174.25 161.75Q186.5 135.5 210.75 121.25Q235 107 270 107Q305.5 107 331.0 121.5Q356.5 136 370.5 162.25Q384.5 188.5 384.5 223.5V423.5Q384.5 440.5 387.75 454.0Q391 467.5 403.75 475.25Q416.5 483 444.5 483Q472.5 483 484.75 474.75Q497 466.5 500.25 452.75Q503.5 439 503.5 422.5V48Q503.5 32.5 500.25 19.5Q497 6.5 484.5 -1.25Q472 -9 444 -9Q424 -9 412.25 -4.5Q400.5 0 395.0 7.25Q389.5 14.5 388.0 22.75Q386.5 31 386.5 38.5L395 65.5Q388.5 57 376.5 44.5Q364.5 32 347.0 19.5Q329.5 7 306.75 -1.25Q284 -9.5 255.5 -9.5Z"/>
<path transform="translate(2981,0)" d="M224 -10Q187 -10 158.5 -5.0Q130 0 109.5 12.0Q89 24 75.75 44.25Q62.5 64.5 56.25 94.75Q50 125 50 167V648.5Q50 666 53.25 679.5Q56.5 693 69.25 701.25Q82 709.5 109.5 709.5Q137.5 709.5 150.0 701.5Q162.5 693.5 166.0 680.0Q169.5 666.5 169.5 649.5V171.5Q169.5 153 172.25 140.5Q175 128 181.5 120.25Q188 112.5 198.5 109.5Q209 106.5 224 106.5Q236.5 106.5 247.0 103.5Q257.5 100.5 264.25 88.5Q271 76.5 271 49.5Q271 21.5 264.25 8.75Q257.5 -4 246.75 -7.0Q236 -10 224 -10Z"/>
<path transform="translate(3272,0)" d="M462 -8.5Q432.5 -8.5 418.75 2.5Q405 13.5 404.5 32.5L411.5 66Q403.5 53 384.5 35.5Q365.5 18 334.75 4.5Q304 -9 260 -9Q213 -9 171.5 10.5Q130 30 98.25 64.5Q66.5 99 48.25 143.5Q30 188 30 238.5Q30 287.5 48.25 331.25Q66.5 375 98.75 409.0Q131 443 172.25 462.5Q213.5 482 260 482Q300.5 482 329.0 471.0Q357.5 460 377.5 443.5Q397.5 427 410.5 409L405 437.5Q404.5 460 418.5 471.25Q432.5 482.5 463 482.5Q490.5 482.5 502.5 474.0Q514.5 465.5 517.75 451.0Q521 436.5 521 418.5V53Q521 36 517.75 21.75Q514.5 7.5 502.25 -0.5Q490 -8.5 462 -8.5ZM278 107.5Q311.5 107.5 338.75 124.75Q366 142 382.25 171.25Q398.5 200.5 398.5 237Q398.5 275.5 381.75 304.5Q365 333.5 337.25 350.25Q309.5 367 276 367Q238.5 367 209.75 349.5Q181 332 164.5 302.5Q148 273 148 235.5Q148 199.5 164.75 170.5Q181.5 141.5 211.0 124.5Q240.5 107.5 278 107.5Z"/>
</g>
<circle cx="4109" cy="842" r="78" fill="#eeb154"/>
</svg>